<svg width="33" height="33" viewBox="0 0 33 33" fill="none" xmlns="http://www.w3.org/2000/svg">
<path d="M13.2795 15.0791C13.0693 15.0791 12.8839 15.0016 12.7234 14.8467C12.5684 14.6917 12.491 14.5063 12.491 14.2905C12.491 14.0692 12.5684 13.881 12.7234 13.7261C12.8839 13.5711 13.0693 13.4937 13.2795 13.4937C13.5009 13.4937 13.689 13.5711 13.844 13.7261C13.9989 13.8755 14.0764 14.0636 14.0764 14.2905C14.0764 14.5119 13.9989 14.7 13.844 14.855C13.689 15.0044 13.5009 15.0791 13.2795 15.0791ZM13.2795 18.0093C13.0637 18.0093 12.8783 17.9346 12.7234 17.7852C12.5684 17.6302 12.491 17.4421 12.491 17.2207C12.491 17.0049 12.5684 16.8195 12.7234 16.6646C12.8783 16.5096 13.0637 16.4321 13.2795 16.4321C13.5009 16.4321 13.689 16.5096 13.844 16.6646C13.9989 16.814 14.0764 16.9993 14.0764 17.2207C14.0764 17.4421 13.9989 17.6302 13.844 17.7852C13.689 17.9346 13.5009 18.0093 13.2795 18.0093ZM13.2795 21.1055C13.0693 21.1055 12.8839 21.028 12.7234 20.873C12.5684 20.7126 12.491 20.5244 12.491 20.3086C12.491 20.0928 12.5684 19.9074 12.7234 19.7524C12.8839 19.5975 13.0693 19.52 13.2795 19.52C13.5009 19.52 13.689 19.5975 13.844 19.7524C13.9989 19.9019 14.0764 20.0872 14.0764 20.3086C14.0764 20.5299 13.9989 20.7181 13.844 20.873C13.689 21.028 13.5009 21.1055 13.2795 21.1055ZM15.6038 14.9214C15.4267 14.9214 15.2745 14.8605 15.1472 14.7388C15.0255 14.6115 14.9646 14.4621 14.9646 14.2905C14.9646 14.1134 15.0255 13.964 15.1472 13.8423C15.2745 13.715 15.4267 13.6514 15.6038 13.6514H20.0779C20.2494 13.6514 20.3988 13.715 20.5261 13.8423C20.6534 13.964 20.717 14.1134 20.717 14.2905C20.717 14.4621 20.6534 14.6115 20.5261 14.7388C20.3988 14.8605 20.2494 14.9214 20.0779 14.9214H15.6038ZM15.6038 17.8516C15.4211 17.8516 15.269 17.7907 15.1472 17.6689C15.0255 17.5472 14.9646 17.3978 14.9646 17.2207C14.9646 17.0436 15.0255 16.8942 15.1472 16.7725C15.269 16.6507 15.4211 16.5898 15.6038 16.5898H20.0779C20.255 16.5898 20.4044 16.6507 20.5261 16.7725C20.6534 16.8942 20.717 17.0436 20.717 17.2207C20.717 17.3978 20.6534 17.5472 20.5261 17.6689C20.4044 17.7907 20.255 17.8516 20.0779 17.8516H15.6038ZM15.6038 20.9478C15.4267 20.9478 15.2745 20.8869 15.1472 20.7651C15.0255 20.6379 14.9646 20.4857 14.9646 20.3086C14.9646 20.137 15.0255 19.9904 15.1472 19.8687C15.269 19.7414 15.4211 19.6777 15.6038 19.6777H20.0779C20.255 19.6777 20.4044 19.7414 20.5261 19.8687C20.6534 19.9904 20.717 20.137 20.717 20.3086C20.717 20.4857 20.6534 20.6379 20.5261 20.7651C20.3988 20.8869 20.2494 20.9478 20.0779 20.9478H15.6038ZM12.2004 26.2188C11.2984 26.2188 10.6067 25.9753 10.1252 25.4883C9.6438 25.0013 9.40308 24.3013 9.40308 23.3882V10.8457C9.40308 9.94922 9.63826 9.25472 10.1086 8.76221C10.579 8.26416 11.2542 8.01514 12.134 8.01514H12.3167C12.289 8.08154 12.2696 8.15348 12.2585 8.23096C12.2475 8.3029 12.2419 8.3776 12.2419 8.45508V9.24365C12.2419 9.45947 12.2724 9.64486 12.3333 9.7998H12.1755C11.8546 9.7998 11.6083 9.89665 11.4368 10.0903C11.2708 10.284 11.1877 10.5413 11.1877 10.8623V23.3716C11.1877 23.7091 11.2791 23.9692 11.4617 24.1519C11.6443 24.34 11.9154 24.4341 12.2751 24.4341H20.9246C21.2787 24.4341 21.5471 24.34 21.7297 24.1519C21.9179 23.9692 22.012 23.7091 22.012 23.3716V10.8623C22.012 10.5413 21.9262 10.284 21.7546 10.0903C21.5886 9.89665 21.3451 9.7998 21.0242 9.7998H20.8665C20.9273 9.64486 20.9578 9.45947 20.9578 9.24365V8.45508C20.9578 8.3776 20.9522 8.3029 20.9412 8.23096C20.9301 8.15348 20.9107 8.08154 20.8831 8.01514H21.0657C21.9456 8.01514 22.6207 8.26416 23.0911 8.76221C23.5614 9.25472 23.7966 9.94922 23.7966 10.8457V23.3882C23.7966 24.3013 23.5559 25.0013 23.0745 25.4883C22.593 25.9753 21.9013 26.2188 20.9993 26.2188H12.2004ZM14.0432 10.1982C13.7887 10.1982 13.5894 10.1235 13.4456 9.97412C13.3017 9.81917 13.2297 9.60335 13.2297 9.32666V8.45508C13.2297 8.17839 13.3017 7.96533 13.4456 7.81592C13.5894 7.66097 13.7887 7.5835 14.0432 7.5835H14.7073C14.7405 7.08545 14.9369 6.66488 15.2966 6.32178C15.6619 5.97314 16.0963 5.79883 16.5999 5.79883C17.1034 5.79883 17.5351 5.97314 17.8948 6.32178C18.26 6.66488 18.4592 7.08545 18.4924 7.5835H19.1482C19.4083 7.5835 19.6103 7.66097 19.7542 7.81592C19.898 7.96533 19.97 8.17839 19.97 8.45508V9.32666C19.97 9.60335 19.898 9.81917 19.7542 9.97412C19.6103 10.1235 19.4083 10.1982 19.1482 10.1982H14.0432ZM16.5999 8.38867C16.8046 8.38867 16.9789 8.31673 17.1228 8.17285C17.2667 8.02344 17.3386 7.84912 17.3386 7.6499C17.3386 7.44515 17.2667 7.27083 17.1228 7.12695C16.9789 6.98307 16.8046 6.91113 16.5999 6.91113C16.3951 6.91113 16.2208 6.98307 16.0769 7.12695C15.933 7.27083 15.8611 7.44515 15.8611 7.6499C15.8611 7.84912 15.933 8.02344 16.0769 8.17285C16.2208 8.31673 16.3951 8.38867 16.5999 8.38867Z" fill="#E063F4"/>
</svg>
