<svg width="33" height="33" viewBox="0 0 33 33" fill="none" xmlns="http://www.w3.org/2000/svg">
<path d="M16.2 25.1646C15.0158 25.1646 13.9007 24.9377 12.8548 24.4839C11.8089 24.0356 10.8875 23.4131 10.0906 22.6162C9.29375 21.8193 8.66842 20.9007 8.21465 19.8604C7.7664 18.8145 7.54228 17.6966 7.54228 16.5068C7.54228 15.3226 7.7664 14.2103 8.21465 13.1699C8.66842 12.124 9.29098 11.2026 10.0823 10.4058C10.8792 9.60889 11.8006 8.98633 12.8465 8.53809C13.8924 8.08431 15.0075 7.85742 16.1917 7.85742C17.3759 7.85742 18.491 8.08431 19.5369 8.53809C20.5883 8.98633 21.5097 9.60889 22.3011 10.4058C23.0979 11.2026 23.7233 12.124 24.177 13.1699C24.6308 14.2103 24.8577 15.3226 24.8577 16.5068C24.8577 17.6966 24.6308 18.8145 24.177 19.8604C23.7233 20.9007 23.0979 21.8193 22.3011 22.6162C21.5097 23.4131 20.5911 24.0356 19.5452 24.4839C18.4993 24.9377 17.3842 25.1646 16.2 25.1646ZM16.2 23.2637C17.1352 23.2637 18.0096 23.0894 18.823 22.7407C19.6421 22.3921 20.3615 21.9106 20.9812 21.2964C21.601 20.6766 22.0853 19.96 22.4339 19.1465C22.7825 18.3275 22.9568 17.4476 22.9568 16.5068C22.9568 15.5716 22.7797 14.6973 22.4256 13.8838C22.077 13.0648 21.5927 12.3454 20.9729 11.7256C20.3587 11.1058 19.6421 10.6216 18.823 10.2729C18.0096 9.92432 17.1325 9.75 16.1917 9.75C15.2565 9.75 14.3794 9.92432 13.5603 10.2729C12.7469 10.6216 12.0302 11.1058 11.4104 11.7256C10.7962 12.3454 10.3147 13.0648 9.96611 13.8838C9.62301 14.6973 9.45146 15.5716 9.45146 16.5068C9.45146 17.4476 9.62301 18.3275 9.96611 19.1465C10.3147 19.96 10.799 20.6766 11.4187 21.2964C12.0385 21.9106 12.7552 22.3921 13.5686 22.7407C14.3877 23.0894 15.2648 23.2637 16.2 23.2637ZM13.7264 19.5449V13.6597C13.7264 13.4162 13.7955 13.2225 13.9339 13.0786C14.0778 12.9347 14.2687 12.8628 14.5066 12.8628H14.9134V12.207C14.9134 12.1019 14.9493 12.0133 15.0213 11.9414C15.0932 11.8695 15.1818 11.8335 15.2869 11.8335C15.3976 11.8335 15.4861 11.8695 15.5525 11.9414C15.6245 12.0133 15.6604 12.1019 15.6604 12.207V12.8628H16.2V12.207C16.2 12.1019 16.236 12.0133 16.3079 11.9414C16.3798 11.8695 16.4684 11.8335 16.5735 11.8335C16.6842 11.8335 16.7755 11.8695 16.8475 11.9414C16.9194 12.0133 16.9554 12.1019 16.9554 12.207V12.8877C17.553 12.9486 18.0234 13.1478 18.3665 13.4854C18.7096 13.8229 18.8811 14.2518 18.8811 14.772C18.8811 15.1095 18.7843 15.425 18.5906 15.7183C18.4025 16.0116 18.1562 16.2274 17.8519 16.3657C18.2669 16.4875 18.5989 16.7116 18.8479 17.0381C19.1025 17.359 19.2298 17.7381 19.2298 18.1753C19.2298 18.7896 19.0278 19.2876 18.6238 19.6694C18.2199 20.0457 17.6637 20.2588 16.9554 20.3086V20.9727C16.9554 21.0889 16.9194 21.1829 16.8475 21.2549C16.7755 21.3213 16.6842 21.3545 16.5735 21.3545C16.4684 21.3545 16.3798 21.3213 16.3079 21.2549C16.236 21.1829 16.2 21.0889 16.2 20.9727V20.3252H15.6604V20.9727C15.6604 21.0889 15.6245 21.1829 15.5525 21.2549C15.4861 21.3213 15.3976 21.3545 15.2869 21.3545C15.1818 21.3545 15.0932 21.3213 15.0213 21.2549C14.9493 21.1829 14.9134 21.0889 14.9134 20.9727V20.3252H14.5066C14.2631 20.3252 14.0722 20.256 13.9339 20.1177C13.7955 19.9793 13.7264 19.7884 13.7264 19.5449ZM15.1126 19.1797H16.3992C16.8696 19.1742 17.2238 19.0828 17.4617 18.9058C17.7052 18.7231 17.827 18.4548 17.827 18.1006C17.827 17.7409 17.6997 17.4725 17.4451 17.2954C17.1961 17.1128 16.8253 17.0215 16.3328 17.0215H15.1126V19.1797ZM15.1126 15.9341L16.1336 15.9424C16.5763 15.9479 16.9139 15.8621 17.1463 15.6851C17.3842 15.5024 17.5032 15.2507 17.5032 14.9297C17.5032 14.6309 17.3981 14.4012 17.1878 14.2407C16.9775 14.0747 16.6842 13.9917 16.3079 13.9917H15.1126V15.9341Z" fill="#E063F4"/>
</svg>
