<svg width="33" height="33" viewBox="0 0 33 33" fill="none" xmlns="http://www.w3.org/2000/svg">
<path d="M10.6646 24.3428C9.74593 24.3428 9.0459 24.1048 8.56445 23.6289C8.08854 23.1585 7.85059 22.4696 7.85059 21.562V11.4766C7.85059 10.569 8.08854 9.88005 8.56445 9.40967C9.0459 8.93376 9.74593 8.6958 10.6646 8.6958H22.1445C23.0632 8.6958 23.7604 8.93376 24.2363 9.40967C24.7122 9.88005 24.9502 10.569 24.9502 11.4766V21.562C24.9502 22.4696 24.7122 23.1585 24.2363 23.6289C23.7604 24.1048 23.0632 24.3428 22.1445 24.3428H10.6646ZM10.7144 22.5H22.0781C22.4102 22.5 22.6647 22.417 22.8418 22.251C23.0189 22.0794 23.1074 21.8193 23.1074 21.4707V13.917C23.1074 13.5739 23.0189 13.3193 22.8418 13.1533C22.6647 12.9818 22.4102 12.896 22.0781 12.896H10.7144C10.3879 12.896 10.1361 12.9818 9.95898 13.1533C9.7819 13.3193 9.69336 13.5739 9.69336 13.917V21.4707C9.69336 21.8193 9.7819 22.0794 9.95898 22.251C10.1361 22.417 10.3879 22.5 10.7144 22.5ZM14.8232 15.6934C14.6738 15.6934 14.5687 15.6657 14.5078 15.6104C14.4469 15.5495 14.4165 15.4471 14.4165 15.3032V14.8135C14.4165 14.6641 14.4469 14.5617 14.5078 14.5063C14.5687 14.451 14.6738 14.4233 14.8232 14.4233H15.3047C15.4541 14.4233 15.5592 14.451 15.6201 14.5063C15.681 14.5617 15.7114 14.6641 15.7114 14.8135V15.3032C15.7114 15.4471 15.681 15.5495 15.6201 15.6104C15.5592 15.6657 15.4541 15.6934 15.3047 15.6934H14.8232ZM17.5044 15.6934C17.355 15.6934 17.2498 15.6657 17.189 15.6104C17.1336 15.5495 17.106 15.4471 17.106 15.3032V14.8135C17.106 14.6641 17.1336 14.5617 17.189 14.5063C17.2498 14.451 17.355 14.4233 17.5044 14.4233H17.9941C18.1436 14.4233 18.2459 14.451 18.3013 14.5063C18.3621 14.5617 18.3926 14.6641 18.3926 14.8135V15.3032C18.3926 15.4471 18.3621 15.5495 18.3013 15.6104C18.2459 15.6657 18.1436 15.6934 17.9941 15.6934H17.5044ZM20.1855 15.6934C20.0361 15.6934 19.931 15.6657 19.8701 15.6104C19.8092 15.5495 19.7788 15.4471 19.7788 15.3032V14.8135C19.7788 14.6641 19.8092 14.5617 19.8701 14.5063C19.931 14.451 20.0361 14.4233 20.1855 14.4233H20.667C20.8219 14.4233 20.9271 14.451 20.9824 14.5063C21.0433 14.5617 21.0737 14.6641 21.0737 14.8135V15.3032C21.0737 15.4471 21.0433 15.5495 20.9824 15.6104C20.9271 15.6657 20.8219 15.6934 20.667 15.6934H20.1855ZM12.1421 18.333C11.9871 18.333 11.8792 18.3053 11.8184 18.25C11.763 18.1891 11.7354 18.084 11.7354 17.9346V17.4531C11.7354 17.3037 11.763 17.2013 11.8184 17.146C11.8792 17.0907 11.9871 17.063 12.1421 17.063H12.6318C12.7812 17.063 12.8836 17.0907 12.939 17.146C12.9943 17.2013 13.022 17.3037 13.022 17.4531V17.9346C13.022 18.084 12.9943 18.1891 12.939 18.25C12.8836 18.3053 12.7812 18.333 12.6318 18.333H12.1421ZM14.8232 18.333C14.6738 18.333 14.5687 18.3053 14.5078 18.25C14.4469 18.1891 14.4165 18.084 14.4165 17.9346V17.4531C14.4165 17.3037 14.4469 17.2013 14.5078 17.146C14.5687 17.0907 14.6738 17.063 14.8232 17.063H15.3047C15.4541 17.063 15.5592 17.0907 15.6201 17.146C15.681 17.2013 15.7114 17.3037 15.7114 17.4531V17.9346C15.7114 18.084 15.681 18.1891 15.6201 18.25C15.5592 18.3053 15.4541 18.333 15.3047 18.333H14.8232ZM17.5044 18.333C17.355 18.333 17.2498 18.3053 17.189 18.25C17.1336 18.1891 17.106 18.084 17.106 17.9346V17.4531C17.106 17.3037 17.1336 17.2013 17.189 17.146C17.2498 17.0907 17.355 17.063 17.5044 17.063H17.9941C18.1436 17.063 18.2459 17.0907 18.3013 17.146C18.3621 17.2013 18.3926 17.3037 18.3926 17.4531V17.9346C18.3926 18.084 18.3621 18.1891 18.3013 18.25C18.2459 18.3053 18.1436 18.333 17.9941 18.333H17.5044ZM20.1855 18.333C20.0361 18.333 19.931 18.3053 19.8701 18.25C19.8092 18.1891 19.7788 18.084 19.7788 17.9346V17.4531C19.7788 17.3037 19.8092 17.2013 19.8701 17.146C19.931 17.0907 20.0361 17.063 20.1855 17.063H20.667C20.8219 17.063 20.9271 17.0907 20.9824 17.146C21.0433 17.2013 21.0737 17.3037 21.0737 17.4531V17.9346C21.0737 18.084 21.0433 18.1891 20.9824 18.25C20.9271 18.3053 20.8219 18.333 20.667 18.333H20.1855ZM12.1421 20.9727C11.9871 20.9727 11.8792 20.945 11.8184 20.8896C11.763 20.8343 11.7354 20.7292 11.7354 20.5742V20.0928C11.7354 19.9434 11.763 19.841 11.8184 19.7856C11.8792 19.7303 11.9871 19.7026 12.1421 19.7026H12.6318C12.7812 19.7026 12.8836 19.7303 12.939 19.7856C12.9943 19.841 13.022 19.9434 13.022 20.0928V20.5742C13.022 20.7292 12.9943 20.8343 12.939 20.8896C12.8836 20.945 12.7812 20.9727 12.6318 20.9727H12.1421ZM14.8232 20.9727C14.6738 20.9727 14.5687 20.945 14.5078 20.8896C14.4469 20.8343 14.4165 20.7292 14.4165 20.5742V20.0928C14.4165 19.9434 14.4469 19.841 14.5078 19.7856C14.5687 19.7303 14.6738 19.7026 14.8232 19.7026H15.3047C15.4541 19.7026 15.5592 19.7303 15.6201 19.7856C15.681 19.841 15.7114 19.9434 15.7114 20.0928V20.5742C15.7114 20.7292 15.681 20.8343 15.6201 20.8896C15.5592 20.945 15.4541 20.9727 15.3047 20.9727H14.8232ZM17.5044 20.9727C17.355 20.9727 17.2498 20.945 17.189 20.8896C17.1336 20.8343 17.106 20.7292 17.106 20.5742V20.0928C17.106 19.9434 17.1336 19.841 17.189 19.7856C17.2498 19.7303 17.355 19.7026 17.5044 19.7026H17.9941C18.1436 19.7026 18.2459 19.7303 18.3013 19.7856C18.3621 19.841 18.3926 19.9434 18.3926 20.0928V20.5742C18.3926 20.7292 18.3621 20.8343 18.3013 20.8896C18.2459 20.945 18.1436 20.9727 17.9941 20.9727H17.5044Z" fill="#E063F4"/>
</svg>
